HIERARCHY
ROOT Hips
{
	OFFSET -3.958830 18.904000 13.208200
	CHANNELS 6 Xposition Yposition Zposition Zrotation Yrotation Xrotation 
	JOINT LHipJoint
	{
		OFFSET 0.000000 0.000000 0.000000
		CHANNELS 3 Zrotation Yrotation Xrotation
		JOINT LeftUpLeg
		{
			OFFSET 1.800000 -1.400000 0.085000
			CHANNELS 3 Zrotation Yrotation Xrotation
			JOINT LeftLeg
			{
				OFFSET 2.215000 -6.000000 0.000000
				CHANNELS 3 Zrotation Yrotation Xrotation
				JOINT LeftFoot
				{
					OFFSET 2.500000 -6.900000 0.000000
					CHANNELS 3 Zrotation Yrotation Xrotation
					JOINT LeftToeBase
					{
						OFFSET 0.200000 -0.500000 1.950000
						CHANNELS 3 Zrotation Yrotation Xrotation
						End Site
						{
							OFFSET 0.000000 0.000000 0.000000
						}
					}
				}
			}
		}
	}
	JOINT RHipJoint
	{
		OFFSET 0.000000 0.000000 0.000000
		CHANNELS 3 Zrotation Yrotation Xrotation
		JOINT RightUpLeg
		{
			OFFSET -1.800000 -1.400000 0.085000
			CHANNELS 3 Zrotation Yrotation Xrotation
			JOINT RightLeg
			{
				OFFSET -2.215000 -6.000000 0.000000
				CHANNELS 3 Zrotation Yrotation Xrotation
				JOINT RightFoot
				{
					OFFSET -2.500000 -6.900000 0.000000
					CHANNELS 3 Zrotation Yrotation Xrotation
					JOINT RightToeBase
					{
						OFFSET -0.200000 -0.500000 1.950000
						CHANNELS 3 Zrotation Yrotation Xrotation
						End Site
						{
							OFFSET 0.000000 0.000000 0.000000
						}
					}
				}
			}
		}
	}
	JOINT LowerBack
	{
		OFFSET 0.000000 0.000000 0.000000
		CHANNELS 3 Zrotation Yrotation Xrotation
		JOINT Spine
		{
			OFFSET -0.087000 1.940000 -0.288900
			CHANNELS 3 Zrotation Yrotation Xrotation
			JOINT Spine1
			{
				OFFSET 0.000000 1.950000 0.060000
				CHANNELS 3 Zrotation Yrotation Xrotation
				JOINT Neck
				{
					OFFSET 0.000000 0.000000 0.000000
					CHANNELS 3 Zrotation Yrotation Xrotation
					JOINT Neck1
					{
						OFFSET 0.000000 1.600000 0.340000
						CHANNELS 3 Zrotation Yrotation Xrotation
						JOINT Head
						{
							OFFSET 0.000000 1.667000 -0.240000
							CHANNELS 3 Zrotation Yrotation Xrotation
							End Site
							{
								OFFSET 0.000000 0.000000 0.000000
							}
						}
					}
				}
				JOINT LeftShoulder
				{
					OFFSET 0.000000 0.000000 0.000000
					CHANNELS 3 Zrotation Yrotation Xrotation
					JOINT LeftArm
					{
						OFFSET 2.700000 1.550000 -0.730000
						CHANNELS 3 Zrotation Yrotation Xrotation
						JOINT LeftForeArm
						{
							OFFSET 5.450000 0.000000 0.000000
							CHANNELS 3 Zrotation Yrotation Xrotation
							JOINT LeftHand
							{
								OFFSET 3.450000 0.000000 0.000000
								CHANNELS 3 Zrotation Yrotation Xrotation
								JOINT LeftHandIndex1
								{
									OFFSET 0.750000 0.000000 0.000000
									CHANNELS 3 Zrotation Yrotation Xrotation
									End Site
									{
										OFFSET 0.000000 0.000000 0.000000
									}
								}
							}
						}
					}
				}
				JOINT RightShoulder
				{
					OFFSET 0.000000 0.000000 0.000000
					CHANNELS 3 Zrotation Yrotation Xrotation
					JOINT RightArm
					{
						OFFSET -2.700000 1.550000 -0.730000
						CHANNELS 3 Zrotation Yrotation Xrotation
						JOINT RightForeArm
						{
							OFFSET -5.450000 0.000000 0.000000
							CHANNELS 3 Zrotation Yrotation Xrotation
							JOINT RightHand
							{
								OFFSET -3.450000 0.000000 0.000000
								CHANNELS 3 Zrotation Yrotation Xrotation
								JOINT RightHandIndex1
								{
									OFFSET -0.750000 0.000000 0.000000
									CHANNELS 3 Zrotation Yrotation Xrotation
									End Site
									{
										OFFSET 0.000000 0.000000 0.000000
									}
								}
							}
						}
					}
				}
			}
		}
	}
}
MOTION
Frames: 6
Frame Time: 0.016667
-0.661020 17.580300 3.224260 -1.829018 -21.111472 -1.130150 -14.856636 12.718115 2.930261 2.291618 -2.482873 -21.373290 -2.654089 3.572359 8.966004 -0.473422 2.373189 3.668778 0.275120 0.228800 0.230230 18.523704 -11.598134 2.548145 -12.840621 -1.035037 4.732473 15.015748 -11.294156 21.937266 -0.773058 -6.442250 2.174634 0.205980 0.019110 0.055330 -4.256088 -0.216021 -6.710431 10.653684 5.961419 6.345416 -1.436202 6.269607 10.105378 0.812695 -3.875903 -6.280541 -8.968995 4.509495 35.722144 -1.691200 3.999140 -7.359540 -21.195423 3.595679 -0.078822 -44.229626 -4.027958 -1.803308 -59.209982 -55.733479 29.962191 -3.669088 3.514363 0.172280 0.040320 0.032950 0.057680 18.996525 0.131226 5.103307 51.046808 -3.949373 -6.607803 77.330194 58.418769 36.078353 2.454431 -1.892935 -0.080360 0.115040 -0.063310 -0.112640 
-0.676320 17.576920 3.202530 -1.851791 -20.702135 -1.556445 -14.842027 12.721829 2.913108 2.426370 -2.388089 -21.176770 -2.561756 3.576049 9.000930 -0.456897 2.362898 3.670154 0.269770 0.221090 0.235000 18.531706 -11.639796 2.566434 -12.711926 -1.065868 5.237191 14.765675 -11.280409 22.077119 -0.789508 -6.463378 2.172137 0.190750 0.007020 0.053670 -4.283849 -0.140263 -6.730728 10.738565 5.993070 6.267580 -1.436590 6.226126 9.934918 0.929802 -3.302865 -6.360340 -8.132689 4.255220 37.398147 -1.542030 3.954470 -6.808360 -21.768478 2.718266 0.130156 -43.540466 -3.733849 -2.307755 -55.619915 -53.122685 26.348351 -3.652960 3.474866 0.179410 0.030330 0.045270 0.055200 19.411680 0.632130 5.070677 51.468776 -3.299658 -7.125650 70.281802 58.548068 31.984627 2.433982 -1.877481 -0.073930 0.108240 -0.068680 -0.112740 
-0.699640 17.574140 3.186400 -1.891139 -20.278721 -1.863325 -14.841595 12.734412 2.890312 2.757863 -2.265744 -21.071876 -2.632192 3.625116 9.058905 -0.449719 2.379440 3.656366 0.267900 0.221010 0.236570 18.532933 -11.647399 2.584735 -12.266274 -1.153770 5.800665 14.461887 -11.165886 21.981910 -0.802149 -6.455547 2.178980 0.185130 -0.002520 0.053300 -4.281992 -0.131113 -6.732723 10.643071 5.933510 6.144599 -1.253974 6.097064 9.645146 0.971968 -3.040477 -6.228992 -7.765668 4.382173 38.618626 -1.476250 4.143130 -6.553980 -22.245580 2.568320 0.167772 -43.569928 -3.229721 -2.912172 -51.326220 -50.497128 22.565301 -3.643222 3.433637 0.185770 0.024290 0.054390 0.051250 19.853385 0.642528 4.761055 51.517983 -2.584201 -7.454051 63.929296 57.076183 27.732413 2.398988 -1.866297 -0.069780 0.103870 -0.068730 -0.114460 
-0.715530 17.568650 3.165680 -1.819139 -19.862696 -2.122126 -14.844926 12.741704 2.878115 2.759028 -2.229008 -21.130114 -2.537029 3.642211 9.282739 -0.455648 2.390284 3.648947 0.265060 0.215020 0.230410 18.532594 -11.649561 2.589738 -11.955156 -1.146775 6.010032 14.188187 -11.062149 22.025957 -0.802119 -6.446187 2.183234 0.183240 0.003670 0.055430 -4.275241 -0.129131 -6.721756 10.421337 5.806018 5.999140 -0.992271 5.896057 9.281565 0.885829 -2.918812 -5.967974 -7.545544 4.628720 39.396451 -1.086660 4.201820 -6.249530 -22.301324 2.912386 0.164691 -43.919975 -2.541758 -3.442298 -47.932426 -47.640183 19.369434 -3.644363 3.400381 0.190090 0.025790 0.051580 0.050390 20.120998 0.294794 4.187142 51.506783 -1.559604 -7.620465 57.309975 54.786276 23.310214 2.364684 -1.841414 -0.072480 0.104530 -0.061570 -0.114850 
-0.731940 17.558940 3.142340 -1.778953 -19.817430 -2.394570 -14.850540 12.771362 2.871457 2.825302 -2.188866 -21.214569 -2.489823 3.677645 9.540870 -0.452498 2.401938 3.642783 0.272130 0.224470 0.234580 18.527434 -11.632501 2.591005 -11.738373 -1.121754 6.089004 14.083220 -11.032759 22.203331 -0.805974 -6.447049 2.184343 0.188300 0.002080 0.052750 -4.258629 -0.200830 -6.715797 10.389165 5.572366 6.100369 -0.673185 5.635926 8.735892 0.722363 -3.187313 -5.546636 -8.105990 4.989809 39.773208 -1.138720 4.311370 -6.157250 -22.722447 3.715422 -0.110317 -43.998425 -1.691136 -4.076811 -43.866108 -44.809313 16.181941 -3.641088 3.361195 0.187900 0.023930 0.052980 0.053320 20.815548 -0.270021 3.614253 50.935502 -1.193914 -7.804094 52.956031 52.434590 20.229896 2.351554 -1.817857 -0.070230 0.106890 -0.066580 -0.113190 
-0.750590 17.546610 3.115970 -1.905661 -19.660905 -2.636492 -14.838733 12.780754 2.864038 3.016849 -2.125580 -21.156330 -2.441031 3.664621 9.419541 -0.459385 2.407076 3.643003 0.266890 0.217100 0.232060 18.539076 -11.640365 2.597495 -11.304808 -1.123042 5.985821 13.972752 -11.057506 22.646752 -0.808971 -6.456902 2.181512 0.188220 0.007520 0.046410 -4.292653 -0.189729 -6.719166 10.605194 5.358355 6.147224 -0.824453 5.414443 8.211400 0.710370 -3.106617 -5.249214 -7.973024 5.245988 40.494993 -0.914900 4.480500 -5.803890 -23.163833 4.070327 -0.311408 -43.621926 -1.142173 -4.551965 -39.955559 -42.450887 13.578000 -3.644393 3.315669 0.192570 0.024580 0.049270 0.052830 21.239383 -0.733227 3.162619 50.853255 -0.849784 -7.960709 48.867492 49.875993 17.349697 2.343637 -1.778001 -0.080000 0.113590 -0.063300 -0.116000 
